<svg version="1" xmlns="http://www.w3.org/2000/svg" width="5333.333" height="5333.333" viewBox="0 0 4000.000000 4000.000000"><path d="M320.2 145.2c-8.7 1.3-20.2 5.6-27.9 10.4-6.9 4.3-20.3 16.4-20.3 18.4 0 .4-.4 1-.8 1.2-1.3.5-8.6 11.6-11.7 17.7-6.8 13.6-13 33.2-15.9 51.1-2.5 15.2-2.6 15.1 4.9 30.5 3.7 7.7 8.5 17.8 10.7 22.5 2.2 4.7 6.7 14.1 10 21 6.9 14.2 13.5 28.3 18.3 38.5 1.8 3.8 6.9 14.6 11.4 23.9 4.5 9.3 8.1 17 8.1 17.1 0 .2 3.6 7.9 8.1 17.1 4.5 9.3 9.4 19.6 10.9 22.9 1.5 3.3 5.6 11.8 9 19 3.4 7.1 7.9 16.6 10 21 3.9 8.3 10.7 22.5 19.2 40.5 5.9 12.3 12.3 25.9 18.3 38.5 2.3 4.9 6.8 14.4 10 21 7.8 16.4 13 27.4 18 38 4.3 9.1 10.3 21.6 19.6 41.2 10.5 22 16.2 34 19.6 41.2 1.9 4 5.9 12.6 9 19 3 6.4 7.8 16.3 10.5 22.1 6.6 13.7 12.4 26.1 18.5 39 2.8 5.8 10.9 22.9 18.1 38 7.1 15.1 15.8 33.3 19.2 40.5 3.4 7.1 7.7 16.1 9.5 20 3.1 6.8 7.7 16.4 19.2 40.5 3.1 6.3 7.2 15.1 9.3 19.5 2.1 4.4 6.5 13.6 9.7 20.5 3.3 6.9 7.8 16.3 10.1 21 7 15 13.3 28.2 19 40 3 6.3 7.3 15.5 9.7 20.5 2.3 4.9 5.7 12.1 7.5 15.8 1.7 3.8 3 7 2.8 7.3-.3.2-21.1.6-46.4.9-113.5 1.3-208.4 3.3-233.9 5-3.8.2-11.9.7-18 1.1-6 .3-11.2.7-11.5.9-.3.2-3.4.6-7 1s-7.4.9-8.5 1.1c-1.1.2-4 .7-6.5 1-2.5.3-4.8.8-5.1 1-.3.2-2 .6-3.8.9-28.7 5-62.7 18.9-88.1 35.8-34.2 22.9-64 59.1-79.4 96.7-1.5 3.6-3.3 7.8-4 9.5-4.9 11-11.3 35.5-14.2 53.5-1.1 6.6-1.2 2301.7-.1 2306.5.5 2.2 1 4.7 1.2 5.5 1.7 8.2 6.8 25.1 8.6 28.2.5 1 .9 2.3.9 2.8 0 3.1 11.8 26.3 18.6 36.8 7.4 11.3 14.4 20 24.4 30 8.7 8.8 23.4 20.6 30.9 24.9 2.5 1.5 5.3 3.2 6.1 3.9 2.6 2.1 23.1 12 32.5 15.7 7.7 3 19.6 6.9 25.4 8.3.9.2 3.4.8 5.6 1.3 2.2.5 5.1 1.2 6.5 1.5 1.4.2 4.8.9 7.5 1.4 10.7 2.2 21.6 3.1 44 3.7 9.9.3 24.3.8 32 1 7.7.2 22.3.7 32.5 1 17.4.5 29.8.9 65.5 2 8.3.3 23.1.7 33 1 9.9.3 23.9.7 31 .9 7.2.3 23.1.8 35.5 1.1 12.4.3 26.6.8 31.5 1 5 .2 20.5.6 34.5 1 37.2 1 36.9 1 37.5 1.7.3.3.8 5.7 1 11.9.5 11.8 1.4 21.4 3 30.4.1 1.1.6 3.8 1 6 3 18.7 12.6 40.8 22.4 51.7l4.1 4.5 152.2-.1c122.8-.1 153.2-.4 156.8-1.5 17.2-5.1 31.2-18.6 41.9-40.6 5.3-10.9 11.3-27.1 12.5-33.5.2-1.4 1.1-5.2 1.9-8.5.9-3.3 1.9-8.3 2.3-11 .9-7 1.3-8.7 1.8-9.2.6-.7 1911.6-.6 1912.2 0 .3.3.7 3.8.9 7.9.6 10.4 1.5 21.1 1.9 21.7.2.3.7 2.8 1 5.6 1.7 12.8 8.6 31.4 15.8 42.6 7.1 10.9 20.1 22 29.5 25.3 3.1 1.1 29.4 1.3 140.3 1.1 90.8-.1 137.5-.5 139.5-1.2 15.3-5.3 26.5-16.5 35.3-35.4 4.4-9.6 9.9-28.4 11.6-40.4.4-2.3.8-5.2 1.1-6.5.3-1.3.7-5.5 1.1-9.4.3-3.8.8-7.6.9-8.5.2-.9.4-4.4.4-7.8l.1-6.1 6.3.3c3.4.2 14.3.6 24.2 1 9.9.4 21.4.9 25.5 1 44.2 1.9 184.2 2.6 229.5 1.1 40-1.3 65.3-2.3 76-3.1 3.3-.2 9.7-.7 14.2-1 4.6-.3 9.1-.8 10.2-1 1.1-.2 4.1-.7 6.8-1 2.6-.4 7.5-1.4 10.8-2.2 3.3-.7 7.1-1.6 8.5-1.9 6.9-1.4 27.8-9.3 38.2-14.4 14.7-7.3 23.8-13.3 36.8-24.2 11.6-9.6 19.2-17.7 34.3-36.8 1.9-2.4 9.1-13.9 13.9-22 10.4-17.9 24.1-52.6 27.3-69.2.3-1.2.9-3.5 1.5-5.2.5-1.7 1.2-4.9 1.6-7.1.3-2.2.9-5.8 1.4-7.9.5-2.2.9-15.2 1-29 4.5-835.3 5.7-1801 2.5-2062.1-1.5-125.1-2.6-146.4-9.6-180.6-9.3-46.1-26.7-84.1-53.4-116.4-7.7-9.3-19.8-22-25.8-27.2-35.5-30.4-77.3-50.9-122.9-60.2-9.5-2-4.7-1.9-125.8-2.6-34.4-.2-106.8-.6-161-1-215.6-1.3-539-3-769-4-506.4-2.3-870.5-3.3-1281.7-3.5-131.6-.1-239.3-.3-239.3-.5 0-.1 3.4-7 7.6-15.1 14.7-28.8 28.7-56.1 36.4-70.9 4.3-8.3 13-25.4 19.5-38 6.5-12.7 15-29.3 19-37 4-7.7 12.8-24.8 19.5-38 6.7-13.2 16-31.2 20.5-40s13.3-25.9 19.5-38c11.4-22.2 23.4-45.6 38.5-75 10.4-20.3 25.9-50.5 41-80 6.5-12.7 15.2-29.8 19.5-38 4.3-8.3 12.6-24.5 18.5-36 23.7-46.3 33.1-64.6 39.5-77 6-11.6 23.3-45.3 42-81.8 3.6-7 10.8-21.1 16.1-31.5 5.3-10.3 14.3-27.7 19.9-38.7 5.6-11 10.5-20.5 10.9-21 1.2-1.5 1.6-9.9 1.6-33.5 0-33.6-3-52-12-72.9-11.1-26-33.4-43.7-60-47.6-2.2-.4-5.1-.8-6.5-1.1-3.7-.6-19.6-.6-26.5.1-5.2.5-11.3 1.5-20.5 3.2-13 2.4-38.6 11.2-55.1 18.9l-9.6 4.5-18.6 37.7c-31.1 63.1-59.2 120.2-73.8 150.2-7.7 15.7-14.4 29.2-14.9 30-.6.8-1.4 2.4-1.9 3.5-1.2 2.8-24 49.2-47.1 96-19 38.5-35 71-71.5 145-10.3 20.9-26.4 53.5-35.7 72.5-9.4 19-26.4 53.4-37.8 76.5-89.6 181.5-91.6 185.5-104.3 206-.6 1.1-1.4 2.2-1.7 2.5-.3.3-2.3 2.7-4.4 5.5-6.3 7.9-12.6 13.3-19.4 16.7-5.5 2.7-6.9 3-12.3 2.5-14.6-1.3-26.9-16.8-37.8-47.7-3-8.3-57.7-118.6-197.9-398.9L441.5 185.8l-11-7c-14.4-9.1-42.3-22.7-55.5-27.1-5.8-1.9-14.6-4.3-19.5-5.2-10.1-1.9-27.3-2.6-35.3-1.3zm1351.3 1273.2c330.3 1 645 2.4 924 4.1 339.1 2 301.9 1.4 315.5 4.9 54.1 13.9 96.6 47 119.4 93.3 7.2 14.5 14.9 37 17 49.8.3 1.6 1 5.2 1.5 8 .9 4.6 1.6 10.1 2.6 20 1.4 13.6 2.2 51.8 3.2 144.5.9 88.5.8 685.6-.1 923-1.6 430.9-2.2 523.3-3.1 527.5-.3 1.6-1.1 5-1.6 7.5-.6 2.5-1.2 5.2-1.4 6.1-.2.9-1.5 5.2-2.8 9.5-7.7 24.2-19.9 47.3-33.3 62.9-7.1 8.3-8.7 9.9-14.5 15.1-8.7 7.7-10.8 9.4-11.8 9.4-.5 0-1.1.3-1.3.8-.6 1.4-10.1 6.9-18.8 11-11.6 5.4-23.5 9.4-32 10.8-1.4.3-4.7 1-7.5 1.6-3.8.9-290.5 1.2-1230.5 1.3-1174 .2-1225.9.1-1235.5-1.6-13.9-2.5-15.5-2.8-19.5-4.1-18.4-5.8-32.3-12-43.6-19.4-7.8-5.1-6.8-4.4-15.4-11.7-21.4-18.2-37.6-46.2-44.2-76.7-1.2-5.6-1.4-125-1.2-827.5.1-451.6.4-821.9.7-823 .3-1.1 1.3-5.4 2.2-9.5 12-56.3 48.9-100 100.8-119.4 9.5-3.6 27.7-8.9 27.7-8.1 0 .3 1 .1 2.3-.4 1.2-.5 4.2-1.1 6.7-1.5 2.5-.3 5.4-.8 6.5-1 20.6-4 111.7-5.9 352.5-7.1 67.9-.4 123.6-.8 123.7-.8.4-.4 513.9.1 711.8.7zm1799 283c2.2.3 6 .8 8.5 1.1 8.1 1.1 18.9 3.5 28.8 6.6 5.3 1.6 10.4 3.1 11.3 3.3 7.4 1.9 40.8 18.4 41.7 20.8.2.4.8.8 1.2.8 2.8 0 22.9 16 34.4 27.3 30.4 30.1 50.3 67.2 58.5 109.2.6 2.7 1.3 6 1.5 7.3 2 9.2 2.7 40.4 1.4 53.7-.8 6.9-3.3 22.3-4.2 25.4-.3.9-.7 2.7-1 4.1-3.6 18.1-15.2 44.6-28.2 64.5-13.5 20.7-31.6 39.7-52.6 55.3-3.1 2.3-6.1 4.2-6.7 4.2-.5 0-1.1.4-1.3.8-.4 1.1-13.9 9.1-22.8 13.5-15.2 7.4-36.1 14.6-50.5 17.1-1.6.3-4.1.8-5.5 1.1-2.5.5-5.9 1-15 2.1-8.4 1-33.9 1.1-42.1.1-41.2-5-77.9-19.7-107.9-43.2-14.3-11.2-28.7-25.8-38.8-39.3-3.1-4.2-5.9-7.9-6.2-8.2-.3-.3-3.2-4.9-6.4-10.2-20.4-34.6-30.1-70.2-29.9-109.9 0-10.1.8-21.4 1.7-26.9.3-1.4.7-4.2 1-6.3 3.3-21.8 14.5-52.6 25.8-71.2 17.5-28.6 38.5-51 63.3-67.6 11.6-7.7 10.9-7.3 23.5-13.8 19-9.7 40.8-17 59-19.6 1.9-.3 4.4-.7 5.5-1 1.1-.2 5.4-.7 9.5-1.1 4.1-.3 7.6-.7 7.8-.9.5-.5 30.9.3 34.7.9zm1.5 673.1c3 .4 6.6.9 8 1.1 1.4.2 4.1.7 6 1 1.9.3 7.8 1.6 13 2.9 38.7 9.6 70.5 27.8 99.1 56.6 31.5 31.7 50.9 70.3 58.4 116.4 1.9 11.2 2.8 43.3 1.5 51.1-.5 2.7-1.1 6.9-1.4 9.4-.7 6-2.4 15.2-4.2 22-15.3 59.5-55.6 109.3-110.3 136.5-6 3-11.3 5.5-11.8 5.5-.4 0-2 .6-3.4 1.4-3.6 1.9-15.9 5.8-28.4 9.2-5.9 1.6-23.1 4.4-30.6 5-30.9 2.5-59.2-.9-86.9-10.2-10-3.5-12.5-4.5-26.5-11.5-22.1-11-37.5-22.2-55.9-40.5-16.6-16.6-32.1-39.5-42-62.1-8.2-18.7-12.4-33.3-16.1-55.8-2.4-14.4-2.4-43.8-.2-57 .3-1.7.8-4.7 1.1-6.8.9-5.7 3.7-19.1 4.2-19.9.3-.4 1.2-3.3 2-6.5 3.3-12.5 14.9-38.1 22.9-50.1 1.9-3 3.5-5.7 3.5-6.2s.3-1 .8-1.2c.4-.2 1.8-1.9 3.2-3.9 9.9-14.4 26.2-31.3 42-43.5 8.5-6.6 17.5-12.7 24.7-16.6 3.2-1.7 7.7-4.1 10-5.4 14-7.7 42.6-16.9 58.7-19 2.2-.3 4.3-.7 4.6-.9.4-.2 4.7-.7 9.6-1.1 4.9-.3 9.1-.8 9.3-1 .6-.5 29.3.4 35.1 1.1z"/><path d="M814.5 1554.9c-32.7 8.6-57.9 30.9-74.9 66.1-4.2 8.9-11 27.6-12.1 33.8-.2 1.5-.9 4.1-1.4 5.8-.5 1.8-.9 274.5-.9 661.6 0 537.9.3 659.9 1.3 666.6 5.9 36.6 30.7 62.4 72 75 17.1 5.2 20.1 5.5 51 5.8 25.6.1 39.8.6 66 1.9 9.2.4 33.6 2.1 43.5 3 3 .3 8.7.7 12.6 1 4 .3 8.7.7 10.5.9 1.9.3 6.8.7 10.9 1.1 4.1.4 8.6.8 10 1 1.4.2 5.7.7 9.6 1 3.9.3 7.9.7 9 .9 1 .2 5.7.7 10.4 1.1 4.7.4 8.8.9 9.1 1.1.4.2 3.8.6 7.5.9 3.8.3 7.9.7 9.1.9 1.2.3 4.9.7 8.2 1.1 3.3.3 6.8.7 7.8.9 1 .2 4.5.7 7.8 1.1 3.3.3 7.4.8 9 1 1.7.2 5 .7 7.5 1 2.5.3 5.6.7 7 1 1.4.2 4.8.7 7.5 1 2.8.3 9.7 1.2 15.5 2.1 5.8.8 12.3 1.7 14.5 2 2.2.3 4.7.7 5.5.9.8.2 4.2.6 7.5 1 3.3.3 6.7.8 7.5 1 1.4.4 7.9 1.3 14 2 1.4.2 5.2.8 8.5 1.4 3.3.5 8 1.3 10.5 1.6 2.5.3 5.8.8 7.3 1.1 1.6.3 3.8.7 5 .8 1.2.2 4.2.6 6.7 1s5.6.9 7 1.1c4.7.6 11.5 1.7 13.5 2.2 1.1.2 3.4.6 5 .8 1.7.2 4.4.6 6 .9 4.6.8 63.6 10.6 67 11.2 1.7.2 5 .9 7.5 1.4 4.2.9 19.6 3.6 26.5 4.7 1.7.2 6.2 1 10 1.8 3.9.8 11.1 2.1 16 2.9 5 .9 9.9 1.8 11 2 1.1.2 5.8 1.1 10.5 2 11 2 12.4 2.3 19 3.6 3 .6 7 1.3 8.9 1.6 1.8.3 4.1.7 5 .9 7.5 1.5 40.1 7.8 42.1 8.1 1.4.3 3.2.7 4 .9.8.2 3.1.7 5 1 2.8.5 50.4 10 60.1 12.1 1.3.2 4.5.9 7.1 1.4 2.6.5 7.5 2.1 11 3.6 13.6 5.7 42.9 15.4 51.3 16.9 28 5.1 32.1 5.5 50.5 5.6 16.8.1 24.4-.7 43.8-4.5 11.8-2.4 33.1-11.2 43.4-17.9 19.5-12.7 72.4-27.5 140.7-39.2 8-1.4 16-2.8 17.6-3.1 1.7-.3 4.1-.7 5.5-.9 1.4-.2 3.9-.6 5.5-.9 4.1-.7 16.5-2.7 19-3 1.1-.2 3.8-.6 6-.9 2.2-.4 5.8-.9 8-1.2 2.3-.3 5-.7 6-.9 1.1-.2 4.3-.7 7-1 2.8-.4 9.5-1.3 15-2.1 10.5-1.4 16.6-2.2 22.5-2.9 1.9-.2 5.5-.7 8-1 2.5-.4 5.9-.8 7.5-1 3.9-.5 20-2.5 24.5-3.1 1.9-.3 5.8-.7 8.5-1 2.8-.2 5.9-.6 7-.9 1.1-.2 5.6-.7 10-1.2 4.4-.4 8.2-.8 8.5-.9.3-.1 4.3-.5 9-.9 4.7-.5 9.2-1 10-1.1.8-.2 4.9-.6 9-1 4.1-.3 8.6-.8 10-1 1.4-.2 5.4-.7 9-1 3.6-.3 7.6-.7 9-1 1.4-.2 6.1-.6 10.5-1 4.3-.4 8.2-.8 8.5-1 .3-.1 4.8-.6 10-.9 5.2-.4 10.9-.9 12.5-1.1 3-.4 9.4-1 20-2 9.5-.9 15.8-1.4 21-1.9 2.8-.3 7.9-.8 11.5-1.1 3.6-.3 8.5-.8 11-1 2.5-.3 7.9-.7 12-1 4.1-.4 9.1-.8 11.2-1 3.3-.4 12.1-1.1 24.3-2 7.5-.6 19.4-1.6 24.5-2 2.5-.2 8.3-.7 13-1 4.7-.3 10.5-.8 13-1 2.5-.2 7.9-.7 12-1 4.1-.3 10-.8 13-1 3-.2 9.3-.7 14-1 4.7-.3 11.4-.7 15-1 6.5-.5 17.1-1.3 28.5-2 11.1-.7 23-1.6 29-2 5.5-.5 14.9-1.1 31-2 3.3-.2 11-.7 17-1 12.2-.7 17.2-1.9 28.9-6.5 19-7.4 33.7-17.1 46.3-30.3 18.8-19.8 30.1-46.9 32.9-78.7 1.3-14.8.6-36.2-1.6-49-3.5-20.4-1.8-17.4-21.7-36.8-9.8-9.6-33-32.3-51.7-50.5-18.6-18.3-38.4-37.6-44-43.1-5.5-5.4-26.5-25.9-46.6-45.6-20.1-19.6-40.2-39.3-44.6-43.6-4.5-4.4-23.6-23-42.4-41.4-55.3-54.2-62.4-61-63.5-60.6-29.1 13-50.1 20.3-71.5 25.1-4.1.9-8.4 1.9-9.5 2.1-8.9 2.1-26.2 4.7-40.3 6.1-15.6 1.6-74.1.6-77.3-1.3-.4-.2-3.1-.6-6-1-3-.3-10.1-1.4-15.9-2.5-95.4-17.9-179.9-74.3-233.5-155.9-4.5-6.9-8.5-13.2-8.9-14-.3-.8-1.6-3.1-2.8-5-9.1-15-22.5-45.1-29.7-67-3.1-9.3-10.4-38-11.5-45-2.7-17-3.6-23.5-4.1-30-.4-4.1-.8-9.1-1.1-11-.5-4.7-.5-45.8 0-49 .2-1.4.7-6.1 1-10.6.4-4.4.8-8.9 1-10 .5-2.7 1.5-9.2 2.1-14.4.3-2.5.8-5.2 1-6 .2-.8.7-2.9.9-4.5.3-1.7 1.9-8.6 3.6-15.5 13.2-54.1 39.4-105.2 75.4-147.5 9.5-11 33.4-34.7 43.1-42.5 4.4-3.5 8.2-6.7 8.5-7 1.6-1.9 26.2-18.8 35.5-24.5 13.6-8.1 32.5-17.8 46.8-23.9 11.1-4.7 41.5-15.2 46.9-16.1 1.7-.3 3.4-.8 3.8-1 .3-.2 1.7-.6 3.1-.9 1.3-.2 6.8-1.4 12.2-2.5 11.5-2.4 26.8-4.9 34.7-5.6 25.8-2.4 50.6-2.4 76.5 0 11.1 1 32.9 4.9 50.5 9 12.2 2.8 37.6 11.5 52 17.6 10.6 4.5 34.6 16.8 44 22.5 9.4 5.7 24 15.5 29.9 20.1 5.8 4.5 15.4 12.1 19.6 15.6 7.4 6.3 31.3 30.2 38.1 38.2 3.2 3.8 6.1 7.2 6.4 7.5 1.9 1.9 13.9 18.3 19.7 27 21 31.3 36.2 64.2 46.8 101 2 6.8 3.8 14 4.1 16 .3 1.9.8 3.8 1 4.1.2.3.6 1.9.8 3.5 1 5 1.5 7.5 2 9.2.3.9.8 3.7 1.1 6.2.2 2.5.7 5.4.9 6.5.2 1.1.7 4.9 1.1 8.5.4 3.6.9 7.3 1 8.2.6 2.9 1.7 26.8 1.8 35.8 0 8.9-1.1 32.2-1.8 36.2-.2 1.3-.6 5-1 8.3-.6 5.8-3.8 25.4-5 30.5-.3 1.4-.8 3.6-1.1 5-.3 1.4-1.4 5.9-2.6 10-1.1 4.1-2.1 8.2-2.3 9-1.3 6.1-10.2 31.2-14 39.5-.7 1.6-2.1 5-3.1 7.5s-2.4 5.6-3 6.9c-1.2 2.3 1.3 5 70.1 73.8 39.3 39.3 71.8 71.5 72.2 71.6.4.1.8-203.9.9-453.3v-453.5l-4.3-8.5c-16.8-32.8-38.9-55.8-66.8-69.8-5.5-2.7-21.2-7.9-26.6-8.8-2.4-.3-5.5-.8-6.9-1.1-8.1-1.4-27.8-.9-37.8.9-11.9 2.2-14.6 2.4-21.2 1.5-12.1-1.7-20.6-2.1-46-2.1-24.7 0-40.5.6-57 1.9-3 .2-8.9.7-13 1-7.3.6-11.3.9-21.5 1.9-2.7.3-7.9.8-11.5 1.1-3.6.3-10.1 1-14.5 1.5s-10.7 1.2-14 1.5c-3.3.3-7.1.8-8.5 1-1.4.2-4.7.6-7.5 1-2.7.3-6.3.7-8 .9-1.6.2-5.5.7-8.5 1-3 .4-8.4 1.1-12 1.6-3.6.5-8.3 1.2-10.5 1.4-2.2.3-9.2 1.2-15.5 2.1-6.3.9-13 1.8-14.9 2.1-1.9.2-4.6.6-6 .9-1.4.2-5.7.9-9.6 1.4-9.5 1.4-13 1.9-27.5 4.2-6.9 1.1-14.1 2.3-16 2.5-1.9.3-4.6.7-5.9.9-1.3.2-4.5.8-7 1.2-2.5.4-4.8.8-5.1.8-.3.1-2.7.5-5.5.9-7.3 1.1-9.4 1.5-15.5 2.6-3 .5-7 1.2-8.7 1.5-1.8.3-4.8.7-6.5 1-1.8.3-8.2 1.4-14.3 2.5-6 1.1-12.8 2.2-15 2.5-2.2.4-4.7.8-5.5 1-.8.2-3.1.7-5 1-1.9.3-10.9 1.9-20 3.5-24.2 4.3-24.6 4.3-42 7.6-7.4 1.5-14.6 2.8-16 3-1.4.2-3.6.7-5 1-1.4.3-3.6.7-5 .9-1.4.2-8.6 1.6-16 3-7.4 1.5-14.6 2.8-16 3.1-1.4.2-10.6 2.1-20.5 4-9.9 2-19.1 3.8-20.5 4-1.4.3-13.7 2.7-27.5 5.5-13.7 2.8-26 5.3-27.1 5.5-1.2.2-6.6 1.3-12 2.5-5.5 1.1-11 2.3-12.4 2.5-5.6 1.1-37.7 7.8-55 11.6-10.2 2.2-19.2 4.1-20 4.3-.8.2-7.1 1.5-14 3s-13.6 2.9-15 3.1c-1.4.3-4.8 1.1-7.5 1.8l-5.1 1.3-3.9-3.4c-6-5.1-19.8-11.5-41.5-19.1-.8-.3-1.9-.6-2.5-.8-.5-.2-5.7-1.7-11.5-3.4-12.1-3.6-47.6-12.5-53.5-13.4-2.2-.4-5.6-1.1-7.5-1.6-1.9-.5-4.8-1.2-6.5-1.4-1.6-.3-3.9-.8-5-1-6.3-1.3-29.4-5.8-31.5-6.1-1.4-.2-6.3-1.1-11-2-4.7-.8-10.1-1.8-12-2.1-1.9-.2-4.6-.7-6-1-5.9-1.1-6.9-1.3-10.6-1.8-2.2-.3-5-.8-6.4-1.1-1.4-.2-4.3-.7-6.5-1-2.2-.3-7.8-1.2-12.5-2-4.7-.7-10.3-1.7-12.5-2-2.2-.3-5.1-.8-6.5-1-2.7-.4-22.7-3.4-27.5-4-2.6-.4-9.8-1.4-22.5-3.1-1.9-.3-4.6-.7-6-.9-1.4-.2-6.3-.9-11-1.5s-9.8-1.3-11.5-1.6c-1.6-.2-4.8-.6-7-.9-2.1-.2-7.5-.9-12-1.5-13.6-1.8-14.7-1.9-26.5-3.4-6.3-.8-14-1.8-17-2.1-3-.3-7.3-.8-9.5-1.1-2.2-.3-5.6-.7-7.5-.9-1.9-.2-5.3-.7-7.5-1-3.9-.5-6.6-.8-18.5-2-3-.3-6.6-.8-8-1-2.5-.4-8.3-1.1-17.5-2-2.7-.3-6.6-.7-8.5-1-1.9-.2-6.4-.7-10-1.1-3.6-.3-7.4-.8-8.5-1-1.1-.2-5.1-.6-8.8-.9-3.7-.3-8-.7-9.5-.9-1.5-.3-5.6-.7-9.2-1.1-3.6-.3-7.6-.8-9-1-1.4-.2-5.6-.7-9.5-1-3.8-.3-8.6-.8-10.5-1-4-.5-10.7-1.2-20-2-3.6-.3-8.1-.8-10-1-1.9-.3-6.2-.7-9.5-1-3.3-.3-7.6-.8-9.5-1-1.9-.2-6.6-.7-10.5-1-3.8-.3-8.6-.8-10.5-1-1.9-.3-6.6-.7-10.5-1-3.8-.3-8.6-.8-10.5-1-1.9-.2-6.6-.7-10.5-1-6.6-.6-11.8-1.1-21-2-2.2-.3-7.4-.7-11.5-1-4.1-.3-9.3-.8-11.4-1-2.1-.2-7.4-.7-11.7-1-4.4-.3-8.7-.8-9.6-.9-1-.2-6.2-.7-11.5-1.1-5.4-.3-11.2-.8-13-1.1-1.8-.2-6.2-.6-9.8-.9-3.6-.2-8.7-.7-11.5-.9-2.7-.3-9-.7-14-1.1-4.9-.3-10.3-.7-12-1-1.6-.2-6.8-.7-11.5-1-4.7-.3-10.7-.8-13.5-1-25.3-2.5-35.3-2.6-43-.6zM976 1902.5c6.9.4 14.3.8 16.5 1 2.2.2 8.7.6 14.5 1 5.8.3 11.6.8 13 1 1.4.2 6.8.7 12 1 5.2.4 10.6.9 12 1 1.4.2 6.3.6 11 1s9.6.8 11 1c1.4.2 6.1.7 10.5 1.1 4.4.3 8.7.8 9.6.9.9.2 5.2.6 9.5 1s9 .8 10.3 1c1.4.3 5.4.7 9 1 3.6.4 7.7.8 9.1 1 1.4.3 6.8.9 12 1.5s10.6 1.2 12 1.5c1.4.2 5 .6 8.1 1 3.1.3 6.5.7 7.5.9 1.1.2 4.8.7 8.4 1.1 3.6.4 7.2.9 8 1 1.7.3 9.3 1.3 15.5 2.1 2.2.2 8.1 1.1 13 1.9 5 .8 11.3 1.7 14 2.1 2.8.3 5.7.8 6.7.9.9.2 3.8.7 6.5 1.1 2.6.3 5.7.8 6.8 1 2.2.5 24.9 4.1 30.5 4.9 1.9.3 5.5 1 8 1.5s6.3 1.2 8.5 1.5c4.8.6 8 1.2 10.3 1.9.9.3 4.2.8 7.2 1.1 3 .4 5.8.9 6.1 1.1.4.2 2.4.6 4.5 1 2.2.3 5.5.9 7.4 1.4 1.9.5 5.2 1.1 7.2 1.4 2.1.3 5.7 1 8 1.5 2.4.6 5.9 1.3 7.8 1.6 7 1.2 51.9 10.8 71.5 15.3 41.2 9.5 121.7 31.6 124.8 34.3.8.6 1.3 103.6.5 104.4-.1.2-3.4-.7-7.3-2-3.8-1.3-8.1-2.6-9.5-2.8-1.4-.3-6.8-1.4-12-2.5s-11.1-2.3-13-2.6c-1.9-.3-7.1-1.2-11.5-2-8.7-1.6-11.4-2.1-22-3.6-3.8-.6-7.7-1.2-8.5-1.5-.8-.2-3.7-.6-6.5-1-2.7-.3-7.5-1-10.5-1.5s-7.7-1.2-10.5-1.5c-2.7-.3-7.7-1-11-1.5s-8-1.2-10.5-1.5c-2.5-.3-5.6-.8-7-1-1.4-.2-4.3-.6-6.5-.9-7.7-1-13-1.7-15.5-2.1-2.7-.4-12.2-1.6-15.5-2-1.1-.2-4.5-.6-7.5-1-3-.3-6.6-.8-8-1-3.8-.6-9.3-1.3-23-3-15.7-2-17.7-2.2-27.5-3.4-4.4-.6-10.5-1.3-13.5-1.6-3-.3-6.2-.8-7-1-.8-.2-4.9-.7-9-1-4.1-.3-8.2-.8-9-1-.8-.2-4.4-.7-8-1-3.6-.3-7.2-.8-8-1-.8-.2-4.6-.6-8.3-1-3.7-.3-7.6-.8-8.5-1-.9-.1-4.8-.6-8.5-1-3.7-.3-7.6-.8-8.5-1-1.7-.3-12.8-1.5-18.7-2-3.8-.4-13.2-1.5-16.5-2-1.4-.2-5.2-.6-8.5-1-8.6-.9-14.5-1.5-18.5-2-3.8-.5-10.3-1.2-17.7-2-2.7-.3-6.4-.7-8.3-1-1.9-.3-6-.7-9.1-1-3.1-.2-7.2-.7-9-.9-4.4-.7-20.8-2.5-27.9-3.1-3-.3-9.1-1-13.5-1.5s-10.7-1.2-14-1.5c-3.3-.3-7.6-.8-9.5-1-1.9-.2-6.2-.7-9.5-1-3.3-.4-7.1-.8-8.5-1-1.4-.2-6.1-.7-10.5-1.1-4.4-.3-8.9-.8-10-1-1.1-.2-4.9-.6-8.5-.9-3.6-.3-7.6-.8-9-1-1.4-.2-5.9-.6-10-1-8.4-.7-13-1.4-14-2-.8-.5-1.2-124.4-.4-125.7.3-.5.8-.6 1.2-.4.4.2 6.3.7 13.2 1.1zm1.5 358.9c5 .3 12.2.8 16 1.1 8.9.7 18 1.4 27.5 2 4.1.3 9.1.8 11 1 1.9.2 7.6.7 12.5 1 5 .4 10.1.8 11.5 1 1.4.2 5.9.7 10 1 4.1.4 8.7.8 10.3 1 1.5.2 6.2.7 10.5 1 4.2.4 8.8.8 10.2 1 1.4.2 5.2.7 8.5 1 3.3.3 9.4 1 13.5 1.5s10.2 1.2 13.5 1.5c5.6.6 24.4 2.9 32.5 4 7.1 1 10.6 1.5 14.5 2 2.2.3 5.6.7 7.5 1 6.4.8 10.5 1.4 15.5 2.1 2.8.3 5.9.8 6.9 1 1.1.2 5.4.8 9.6 1.4 4.2.6 8.5 1.2 9.6 1.4 1 .2 3.7.6 5.9 1 2.2.3 11.2 1.8 20 3.2 8.8 1.4 17.1 2.8 18.5 3 2.9.4 14.7 2.4 31 5.4 6.3 1.2 12.6 2.3 14 2.5 2.3.3 56.4 11.2 60 12 1.8.4 16.7 3.7 27 5.9 16.5 3.6 58.7 14.1 79.5 19.8 12.1 3.3 22.7 6.1 23.5 6.3.8.2 7.6 2.2 15 4.5s15.1 4.6 17 5.2c1.9.5 3.9 1.3 4.3 1.8.7.6 1.2 78.3.7 102.7 0 2.2-.1 2.2-3.7.8-3.9-1.5-17.4-5-23.1-6-1.8-.3-6.3-1.2-10-1.9-3.7-.8-8.5-1.7-10.7-2-2.3-.4-5.2-.8-6.5-1.1-4.8-.9-13.5-2.4-17.5-3-2.3-.3-5-.7-6-.9-2.4-.4-10-1.6-13.5-2.1-3.2-.4-11-1.6-13.1-2-.9-.2-4-.6-7-1-3-.3-6.1-.8-6.9-1-.8-.2-4-.7-7-1-3-.3-6.2-.8-7-1-.8-.2-4.4-.7-8-1-3.6-.4-6.7-.8-7-1-.5-.3-5.8-1-15.5-2.1-3.3-.3-6.9-.8-8-1-1.1-.2-4.4-.6-7.3-1-2.9-.3-6.1-.7-7.1-.9-1-.2-4.2-.6-7.2-1-3-.3-6.5-.8-7.9-1-1.4-.2-5-.7-8-1-3-.3-6.6-.8-8-1-1.4-.2-4.9-.7-7.9-1-3-.4-6.1-.8-7-1-.9-.1-4.7-.6-8.6-1-3.8-.4-7.8-.9-8.7-1.1-.9-.1-4.8-.6-8.5-.9-3.7-.4-7.5-.9-8.3-1-2.5-.4-12.7-1.7-25-3-2.5-.3-5.8-.7-7.5-1-1.6-.2-5.8-.7-9.3-1-3.5-.4-7.2-.8-8.2-1-1-.2-5-.7-8.7-1-3.7-.4-7.5-.8-8.3-1-.8-.2-4.9-.7-9-1-4.1-.4-8.2-.8-9-1-.9-.2-4.3-.6-7.5-1-3.3-.3-7.3-.8-9-1-1.6-.2-5.7-.7-9-1-3.3-.3-7.3-.8-9-1-1.6-.2-5.7-.7-9-1-3.3-.3-7.1-.8-8.5-1-1.4-.2-5.4-.7-9-1-3.6-.4-7.6-.8-9-1-1.4-.2-5.4-.7-9-1-3.6-.3-7.6-.8-9-1-1.4-.2-5.4-.7-9-1-3.6-.3-7.6-.8-9-1-1.4-.2-5.4-.7-9-1-6.3-.6-8.9-.9-17.5-1.9-2.2-.3-6.9-.8-10.5-1.1-3.6-.4-7.6-.8-9-1-1.4-.2-5.4-.6-9-1-3.6-.3-8.1-.8-10-1-1.9-.2-5.9-.7-8.7-1-2.9-.3-7.7-.7-10.5-1-2.9-.3-6.9-.8-8.8-1-6.4-.8-13.4-1.5-20-2.1-3.6-.3-7.4-.8-8.5-.9-1.1-.2-3-.4-4.1-.4l-2.1-.1-.1-62.8c0-34.5.1-62.9.3-63.2.3-.6.8-.5 16 .4zm2.5 338.1c5.8.3 13 .8 16 1 5.4.4 10.2.8 26.5 2 4.4.3 9.8.8 12 1 2.2.2 7.6.7 12 1 4.4.3 9.4.7 11 1 1.7.2 6.6.7 11 1 4.4.4 9.1.8 10.5 1 1.4.2 5.4.6 9 1 3.6.3 8.1.8 10 1 1.9.2 6.2.7 9.5 1 3.3.3 7.6.8 9.5 1 5.5.7 20 2.4 25.5 3 2.8.3 6.7.8 8.8 1.1 4.1.6 5.8.8 15 1.9 3.4.4 6.9.9 7.8 1 .9.2 4 .6 7 1 3 .3 6.5.8 7.9 1 1.4.2 4.3.7 6.5 1 5.5.7 15 2 27.5 3.9 5.8.9 12.1 1.8 14 2.1 1.9.3 6 1 9 1.5 5.4.9 13 2.1 16 2.5.8.1 2.9.4 4.5.8 1.7.3 4.6.9 6.5 1.1 1.9.3 6.2 1 9.5 1.6 3.3.6 8.7 1.5 12 2.1 11 1.8 12 2 16 2.9 2.2.5 5.6 1.1 7.5 1.4 1.9.3 4.6.8 6 1.1 1.4.3 3.9.7 5.5 1 1.7.3 5 1 7.5 1.5s5.6 1.2 7 1.4c1.4.2 7 1.3 12.5 2.5s10.9 2.3 12 2.4c1.1.2 3.1.7 4.5 1 2.5.6 28.8 6.4 32.5 7.1 11.9 2.4 46.5 10.9 73.5 18.1 9.6 2.6 18.2 4.8 19 5 2 .5 29.7 8.8 38.5 11.5 3.9 1.2 7.4 2.6 7.9 3 .6.6 1.1 68.6.6 101.7v3.2l-3.4-1.4c-4-1.7-25.1-6.8-34.6-8.4-3.6-.6-7.6-1.3-9-1.6-1.4-.3-5.4-1-9-1.5-3.6-.6-7.6-1.3-9-1.6-1.4-.2-6.8-1.1-12-1.9-5.2-.8-10.8-1.7-12.5-2-6.3-1.1-9.2-1.5-13.5-2-2.5-.3-5.6-.7-6.9-1-1.3-.2-4.9-.7-8-1.1-3.1-.3-5.8-.8-6.1-.9-.3-.2-3.7-.6-7.5-1-3.9-.4-7.2-.9-7.5-1-.3-.2-3-.6-6-1-3-.3-6.6-.8-8-1-15.5-2.2-23.4-3.2-30.5-4-2.7-.3-6.1-.8-7.5-1-1.4-.2-5-.7-8-1-3-.3-6.6-.8-8-1-1.4-.2-8.3-1.1-15.5-2-7.1-.9-14.1-1.8-15.5-2-1.4-.2-5.4-.7-9-1-3.6-.4-7.2-.8-8-1-.8-.2-4.4-.6-8-1-3.6-.4-7.2-.8-8.1-1-.8-.2-4.2-.6-7.5-.9-8.9-1-14.6-1.6-17.4-2.1-1.4-.3-5.5-.7-9.2-1-3.7-.3-7.5-.7-8.5-.9-1-.2-4.7-.7-8.3-1.1-3.6-.3-7.6-.8-9-1-1.4-.2-5-.6-8-1-3-.3-7.1-.8-9-1-1.9-.3-5.7-.7-8.5-1-2.7-.3-6.6-.7-8.5-1-1.9-.2-8-.9-13.5-1.5s-11.6-1.3-13.5-1.5c-13-1.6-17.8-2.1-26-2.9-3.6-.3-7.6-.8-9-1-2.2-.4-6-.8-19.5-2.1-2.2-.2-6-.7-8.5-1-6.6-.8-17.7-2.1-27.5-3-3.3-.3-6.9-.8-8-1-1.1-.1-5.6-.6-10-1s-8.7-.9-9.5-1c-.8-.2-5.1-.6-9.5-1s-8.8-.9-9.8-1.1c-1-.2-4.8-.6-8.5-.9-3.7-.3-8.1-.8-9.9-1-1.8-.3-6.3-.8-10-1.1-3.7-.3-7.9-.7-9.3-.9-1.4-.1-5.7-.6-9.6-1l-7.2-.7v-62.7c0-34.4.2-62.9.4-63.2.2-.4 2.1-.5 4.1-.3 2.1.1 8.5.5 14.3.9z"/><path d="M2106.7 2045.6c-.1.1-4.3.5-9.3.8-5.1.4-10.1.8-11.2 1.1-1.1.2-3.7.6-5.8 1-7.9 1.2-13.9 2.5-22.9 4.9-12.4 3.2-24.5 8-40 15.8-7.6 3.8-22.4 12.5-23.5 13.8-.3.4-2.7 2.2-5.5 4-2.7 1.9-8.4 6.4-12.5 9.9-25.7 22.3-44.3 47.3-57.9 78.3-4.2 9.5-11.3 31.3-12.6 38.7-.2 1.4-1.1 6.5-1.9 11.4-3.5 19.8-3.9 43.3-1.1 63.2.2 1.6.6 4.6.9 6.5.9 6.8 4.7 22.6 7.2 30.4 17.7 54.9 56 100 106.9 126 15 7.7 33.9 14.9 45.4 17.2 1.2.3 5.1 1.1 8.5 1.9 3.3.8 8.4 1.7 11.1 2.1 2.8.3 5.9.8 7 1.1 3.9 1 42.1 1.2 49 .3 11.9-1.6 14.8-2.1 22-3.6 30.7-6.6 58-19.2 84.5-38.8 10.7-8 29.8-26.5 38.2-37.1 6.7-8.4 14.8-20.3 14.8-21.6 0-.5.3-.9.8-.9.4 0 1.2-1 1.8-2.3.6-1.2 2.6-5.1 4.5-8.7 4.3-8 11.5-24.6 13.9-32 2.7-8.3 5.9-20.1 6.5-24 .3-1.9.8-4.2 1-5 .5-1.9 1.2-6.1 2-12.5 2.7-22.9 2.1-43.1-2-66.4-8.8-50-36.6-96.1-78.2-129.5-4.5-3.6-8.6-6.6-9.2-6.6-.5 0-1.1-.4-1.3-.9-.1-.5-4.1-3.3-8.8-6.1-19.7-12.1-41.5-21.3-62-26.2-9.3-2.2-9.5-2.2-16-3.3-2.5-.4-5.3-.9-6.2-1-5.8-1.1-37.2-2.7-38.1-1.9z"/></svg>