<?xml version="1.0" encoding="utf-8"?>
<!-- Generator: Adobe Illustrator 22.1.0, SVG Export Plug-In . SVG Version: 6.00 Build 0)  -->
<svg version="1.1" id="Layer_1" xmlns="http://www.w3.org/2000/svg" xmlns:xlink="http://www.w3.org/1999/xlink" x="0px" y="0px"
	 viewBox="0 0 5333.3 5333.3" style="enable-background:new 0 0 5333.3 5333.3;" xml:space="preserve">
<style type="text/css">
	.st0{fill:#D8D8D8;}
</style>
<path class="st0" d="M426.9,193.6c-11.6,1.7-26.9,7.5-37.2,13.9c-9.2,5.7-27.1,21.9-27.1,24.5c0,0.5-0.5,1.3-1.1,1.6
	c-1.7,0.7-11.5,15.5-15.6,23.6c-9.1,18.1-17.3,44.3-21.2,68.1c-3.3,20.3-3.5,20.1,6.5,40.7c4.9,10.3,11.3,23.7,14.3,30
	s8.9,18.8,13.3,28c9.2,18.9,18,37.7,24.4,51.3c2.4,5.1,9.2,19.5,15.2,31.9s10.8,22.7,10.8,22.8c0,0.3,4.8,10.5,10.8,22.8
	c6,12.4,12.5,26.1,14.5,30.5s7.5,15.7,12,25.3c4.5,9.5,10.5,22.1,13.3,28c5.2,11.1,14.3,30,25.6,54c7.9,16.4,16.4,34.5,24.4,51.3
	c3.1,6.5,9.1,19.2,13.3,28c10.4,21.9,17.3,36.5,24,50.7c5.7,12.1,13.7,28.8,26.1,54.9c14,29.3,21.6,45.3,26.1,54.9
	c2.5,5.3,7.9,16.8,12,25.3c4,8.5,10.4,21.7,14,29.5c8.8,18.3,16.5,34.8,24.7,52c3.7,7.7,14.5,30.5,24.1,50.7
	c9.5,20.1,21.1,44.4,25.6,54c4.5,9.5,10.3,21.5,12.7,26.7c4.1,9.1,10.3,21.9,25.6,54c4.1,8.4,9.6,20.1,12.4,26
	c2.8,5.9,8.7,18.1,12.9,27.3c4.4,9.2,10.4,21.7,13.5,28c9.3,20,17.7,37.6,25.3,53.3c4,8.4,9.7,20.7,12.9,27.3
	c3.1,6.5,7.6,16.1,10,21.1c2.3,5.1,4,9.3,3.7,9.7c-0.4,0.3-28.1,0.8-61.9,1.2c-151.3,1.7-277.9,4.4-311.9,6.7
	c-5.1,0.3-15.9,0.9-24,1.5c-8,0.4-14.9,0.9-15.3,1.2c-0.4,0.3-4.5,0.8-9.3,1.3c-4.8,0.5-9.9,1.2-11.3,1.5s-5.3,0.9-8.7,1.3
	c-3.3,0.4-6.4,1.1-6.8,1.3c-0.4,0.3-2.7,0.8-5.1,1.2c-38.3,6.7-83.6,25.2-117.5,47.7c-45.6,30.5-85.3,78.8-105.9,128.9
	c-2,4.8-4.4,10.4-5.3,12.7c-6.5,14.7-15.1,47.3-18.9,71.3c-1.5,8.8-1.6,3068.9-0.1,3075.3c0.7,2.9,1.3,6.3,1.6,7.3
	c2.3,10.9,9.1,33.5,11.5,37.6c0.7,1.3,1.2,3.1,1.2,3.7c0,4.1,15.7,35.1,24.8,49.1c9.9,15.1,19.2,26.7,32.5,40
	c11.6,11.7,31.2,27.5,41.2,33.2c3.3,2,7.1,4.3,8.1,5.2c3.5,2.8,30.8,16,43.3,20.9c10.3,4,26.1,9.2,33.9,11.1
	c1.2,0.3,4.5,1.1,7.5,1.7c2.9,0.7,6.8,1.6,8.7,2c1.9,0.3,6.4,1.2,10,1.9c14.3,2.9,28.8,4.1,58.7,4.9c13.2,0.4,32.4,1.1,42.7,1.3
	c10.3,0.3,29.7,0.9,43.3,1.3c23.2,0.7,39.7,1.2,87.3,2.7c11.1,0.4,30.8,0.9,44,1.3c13.2,0.4,31.9,0.9,41.3,1.2
	c9.6,0.4,30.8,1.1,47.3,1.5c16.5,0.4,35.5,1.1,42,1.3c6.7,0.3,27.3,0.8,46,1.3c49.6,1.3,49.2,1.3,50,2.3c0.4,0.4,1.1,7.6,1.3,15.9
	c0.7,15.7,1.9,28.5,4,40.5c0.1,1.5,0.8,5.1,1.3,8c4,24.9,16.8,54.4,29.9,68.9l5.5,6l202.9-0.1c163.7-0.1,204.3-0.5,209.1-2
	c22.9-6.8,41.6-24.8,55.9-54.1c7.1-14.5,15.1-36.1,16.7-44.7c0.3-1.9,1.5-6.9,2.5-11.3c1.2-4.4,2.5-11.1,3.1-14.7
	c1.2-9.3,1.7-11.6,2.4-12.3c0.8-0.9,2548.8-0.8,2549.6,0c0.4,0.4,0.9,5.1,1.2,10.5c0.8,13.9,2,28.1,2.5,28.9
	c0.3,0.4,0.9,3.7,1.3,7.5c2.3,17.1,11.5,41.9,21.1,56.8c9.5,14.5,26.8,29.3,39.3,33.7c4.1,1.5,39.2,1.7,187.1,1.5
	c121.1-0.1,183.3-0.7,186-1.6c20.4-7.1,35.3-22,47.1-47.2c5.9-12.8,13.2-37.9,15.5-53.9c0.5-3.1,1.1-6.9,1.5-8.7
	c0.4-1.7,0.9-7.3,1.5-12.5c0.4-5.1,1.1-10.1,1.2-11.3c0.3-1.2,0.5-5.9,0.5-10.4l0.1-8.1l8.4,0.4c4.5,0.3,19.1,0.8,32.3,1.3
	c13.2,0.5,28.5,1.2,34,1.3c58.9,2.5,245.6,3.5,306,1.5c53.3-1.7,87.1-3.1,101.3-4.1c4.4-0.3,12.9-0.9,18.9-1.3
	c6.1-0.4,12.1-1.1,13.6-1.3c1.5-0.3,5.5-0.9,9.1-1.3c3.5-0.5,10-1.9,14.4-2.9c4.4-0.9,9.5-2.1,11.3-2.5c9.2-1.9,37.1-12.4,50.9-19.2
	c19.6-9.7,31.7-17.7,49.1-32.3c15.5-12.8,25.6-23.6,45.7-49.1c2.5-3.2,12.1-18.5,18.5-29.3c13.9-23.9,32.1-70.1,36.4-92.3
	c0.4-1.6,1.2-4.7,2-6.9c0.7-2.3,1.6-6.5,2.1-9.5c0.4-2.9,1.2-7.7,1.9-10.5c0.7-2.9,1.2-20.3,1.3-38.7
	c6-1113.7,7.6-2401.3,3.3-2749.5c-2-166.8-3.5-195.2-12.8-240.8c-12.4-61.5-35.6-112.1-71.2-155.2c-10.3-12.4-26.4-29.3-34.4-36.3
	c-47.3-40.5-103.1-67.9-163.9-80.3c-12.7-2.7-6.3-2.5-167.7-3.5c-45.9-0.3-142.4-0.8-214.7-1.3c-287.5-1.7-718.7-4-1025.3-5.3
	c-675.2-3.1-1160.7-4.4-1708.9-4.7c-175.5-0.1-319.1-0.4-319.1-0.7c0-0.1,4.5-9.3,10.1-20.1c19.6-38.4,38.3-74.8,48.5-94.5
	c5.7-11.1,17.3-33.9,26-50.7c8.7-16.9,20-39.1,25.3-49.3c5.3-10.3,17.1-33.1,26-50.7c8.9-17.6,21.3-41.6,27.3-53.3
	c6-11.7,17.7-34.5,26-50.7c15.2-29.6,31.2-60.8,51.3-100c13.9-27.1,34.5-67.3,54.7-106.7c8.7-16.9,20.3-39.7,26-50.7
	c5.7-11.1,16.8-32.7,24.7-48c31.6-61.7,44.1-86.1,52.7-102.7c8-15.5,31.1-60.4,56-109.1c4.8-9.3,14.4-28.1,21.5-42
	c7.1-13.7,19.1-36.9,26.5-51.6c7.5-14.7,14-27.3,14.5-28c1.6-2,2.1-13.2,2.1-44.7c0-44.8-4-69.3-16-97.2
	c-14.8-34.7-44.5-58.3-80-63.5c-2.9-0.5-6.8-1.1-8.7-1.5c-4.9-0.8-26.1-0.8-35.3,0.1c-6.9,0.7-15.1,2-27.3,4.3
	c-17.3,3.2-51.5,14.9-73.5,25.2l-12.8,6l-24.8,50.3c-41.5,84.1-78.9,160.3-98.4,200.3c-10.3,20.9-19.2,38.9-19.9,40
	c-0.8,1.1-1.9,3.2-2.5,4.7c-1.6,3.7-32,65.6-62.8,128c-25.3,51.3-46.7,94.7-95.3,193.3c-13.7,27.9-35.2,71.3-47.6,96.7
	c-12.5,25.3-35.2,71.2-50.4,102c-119.5,242-122.1,247.3-139.1,274.7c-0.8,1.5-1.9,2.9-2.3,3.3c-0.4,0.4-3.1,3.6-5.9,7.3
	c-8.4,10.5-16.8,17.7-25.9,22.3c-7.3,3.6-9.2,4-16.4,3.3c-19.5-1.7-35.9-22.4-50.4-63.6c-4-11.1-76.9-158.1-263.9-531.9L588.7,247.7
	l-14.7-9.3c-19.2-12.1-56.4-30.3-74-36.1c-7.7-2.5-19.5-5.7-26-6.9C460.5,192.8,437.6,191.9,426.9,193.6z M2228.7,1891.2
	c440.4,1.3,860,3.2,1232,5.5c452.1,2.7,402.5,1.9,420.7,6.5c72.1,18.5,128.8,62.7,159.2,124.4c9.6,19.3,19.9,49.3,22.7,66.4
	c0.4,2.1,1.3,6.9,2,10.7c1.2,6.1,2.1,13.5,3.5,26.7c1.9,18.1,2.9,69.1,4.3,192.7c1.2,118,1.1,914.1-0.1,1230.7
	c-2.1,574.5-2.9,697.7-4.1,703.3c-0.4,2.1-1.5,6.7-2.1,10c-0.8,3.3-1.6,6.9-1.9,8.1c-0.3,1.2-2,6.9-3.7,12.7
	c-10.3,32.3-26.5,63.1-44.4,83.9c-9.5,11.1-11.6,13.2-19.3,20.1c-11.6,10.3-14.4,12.5-15.7,12.5c-0.7,0-1.5,0.4-1.7,1.1
	c-0.8,1.9-13.5,9.2-25.1,14.7c-15.5,7.2-31.3,12.5-42.7,14.4c-1.9,0.4-6.3,1.3-10,2.1c-5.1,1.2-387.3,1.6-1640.7,1.7
	c-1565.3,0.3-1634.5,0.1-1647.3-2.1c-18.5-3.3-20.7-3.7-26-5.5c-24.5-7.7-43.1-16-58.1-25.9c-10.4-6.8-9.1-5.9-20.5-15.6
	c-28.5-24.3-50.1-61.6-58.9-102.3c-1.6-7.5-1.9-166.7-1.6-1103.3c0.1-602.1,0.5-1095.9,0.9-1097.3c0.4-1.5,1.7-7.2,2.9-12.7
	c16-75.1,65.2-133.3,134.4-159.2c12.7-4.8,36.9-11.9,36.9-10.8c0,0.4,1.3,0.1,3.1-0.5c1.6-0.7,5.6-1.5,8.9-2
	c3.3-0.4,7.2-1.1,8.7-1.3c27.5-5.3,148.9-7.9,470-9.5c90.5-0.5,164.8-1.1,164.9-1.1C1280.1,1889.7,1964.8,1890.4,2228.7,1891.2
	L2228.7,1891.2z M4627.3,2268.5c2.9,0.4,8,1.1,11.3,1.5c10.8,1.5,25.2,4.7,38.4,8.8c7.1,2.1,13.9,4.1,15.1,4.4
	c9.9,2.5,54.4,24.5,55.6,27.7c0.3,0.5,1.1,1.1,1.6,1.1c3.7,0,30.5,21.3,45.9,36.4c40.5,40.1,67.1,89.6,78,145.6c0.8,3.6,1.7,8,2,9.7
	c2.7,12.3,3.6,53.9,1.9,71.6c-1.1,9.2-4.4,29.7-5.6,33.9c-0.4,1.2-0.9,3.6-1.3,5.5c-4.8,24.1-20.3,59.5-37.6,86
	c-18,27.6-42.1,52.9-70.1,73.7c-4.1,3.1-8.1,5.6-8.9,5.6c-0.7,0-1.5,0.5-1.7,1.1c-0.5,1.5-18.5,12.1-30.4,18
	c-20.3,9.9-48.1,19.5-67.3,22.8c-2.1,0.4-5.5,1.1-7.3,1.5c-3.3,0.7-7.9,1.3-20,2.8c-11.2,1.3-45.2,1.5-56.1,0.1
	c-54.9-6.7-103.9-26.3-143.9-57.6c-19.1-14.9-38.3-34.4-51.7-52.4c-4.1-5.6-7.9-10.5-8.3-10.9s-4.3-6.5-8.5-13.6
	c-27.2-46.1-40.1-93.6-39.9-146.5c0-13.5,1.1-28.5,2.3-35.9c0.4-1.9,0.9-5.6,1.3-8.4c4.4-29.1,19.3-70.1,34.4-94.9
	c23.3-38.1,51.3-68,84.4-90.1c15.5-10.3,14.5-9.7,31.3-18.4c25.3-12.9,54.4-22.7,78.7-26.1c2.5-0.4,5.9-0.9,7.3-1.3
	c1.5-0.3,7.2-0.9,12.7-1.5c5.5-0.4,10.1-0.9,10.4-1.2C4581.7,2266.7,4622.3,2267.7,4627.3,2268.5L4627.3,2268.5z M4629.3,3166
	c4,0.5,8.8,1.2,10.7,1.5c1.9,0.3,5.5,0.9,8,1.3c2.5,0.4,10.4,2.1,17.3,3.9c51.6,12.8,94,37.1,132.1,75.5
	c42,42.3,67.9,93.7,77.9,155.2c2.5,14.9,3.7,57.7,2,68.1c-0.7,3.6-1.5,9.2-1.9,12.5c-0.9,8-3.2,20.3-5.6,29.3
	c-20.4,79.3-74.1,145.7-147.1,182c-8,4-15.1,7.3-15.7,7.3c-0.5,0-2.7,0.8-4.5,1.9c-4.8,2.5-21.2,7.7-37.9,12.3
	c-7.9,2.1-30.8,5.9-40.8,6.7c-41.2,3.3-78.9-1.2-115.9-13.6c-13.3-4.7-16.7-6-35.3-15.3c-29.5-14.7-50-29.6-74.5-54
	c-22.1-22.1-42.8-52.7-56-82.8c-10.9-24.9-16.5-44.4-21.5-74.4c-3.2-19.2-3.2-58.4-0.3-76c0.4-2.3,1.1-6.3,1.5-9.1
	c1.2-7.6,4.9-25.5,5.6-26.5c0.4-0.5,1.6-4.4,2.7-8.7c4.4-16.7,19.9-50.8,30.5-66.8c2.5-4,4.7-7.6,4.7-8.3s0.4-1.3,1.1-1.6
	c0.5-0.3,2.4-2.5,4.3-5.2c13.2-19.2,34.9-41.7,56-58c11.3-8.8,23.3-16.9,32.9-22.1c4.3-2.3,10.3-5.5,13.3-7.2
	c18.7-10.3,56.8-22.5,78.3-25.3c2.9-0.4,5.7-0.9,6.1-1.2c0.5-0.3,6.3-0.9,12.8-1.5c6.5-0.4,12.1-1.1,12.4-1.3
	C4583.3,3163.9,4621.6,3165.1,4629.3,3166L4629.3,3166z"/>
<path class="st0" d="M1086,2073.2c-43.6,11.5-77.2,41.2-99.9,88.1c-5.6,11.9-14.7,36.8-16.1,45.1c-0.3,2-1.2,5.5-1.9,7.7
	c-0.7,2.4-1.2,366-1.2,882.1c0,717.2,0.4,879.9,1.7,888.8c7.9,48.8,40.9,83.2,96,100c22.8,6.9,26.8,7.3,68,7.7
	c34.1,0.1,53.1,0.8,88,2.5c12.3,0.5,44.8,2.8,58,4c4,0.4,11.6,0.9,16.8,1.3c5.3,0.4,11.6,0.9,14,1.2c2.5,0.4,9.1,0.9,14.5,1.5
	c5.5,0.5,11.5,1.1,13.3,1.3s7.6,0.9,12.8,1.3s10.5,0.9,12,1.2c1.3,0.3,7.6,0.9,13.9,1.5s11.7,1.2,12.1,1.5c0.5,0.3,5.1,0.8,10,1.2
	c5.1,0.4,10.5,0.9,12.1,1.2c1.6,0.4,6.5,0.9,10.9,1.5c4.4,0.4,9.1,0.9,10.4,1.2c1.3,0.3,6,0.9,10.4,1.5c4.4,0.4,9.9,1.1,12,1.3
	c2.3,0.3,6.7,0.9,10,1.3c3.3,0.4,7.5,0.9,9.3,1.3c1.9,0.3,6.4,0.9,10,1.3c3.7,0.4,12.9,1.6,20.7,2.8c7.7,1.1,16.4,2.3,19.3,2.7
	c2.9,0.4,6.3,0.9,7.3,1.2c1.1,0.3,5.6,0.8,10,1.3c4.4,0.4,8.9,1.1,10,1.3c1.9,0.5,10.5,1.7,18.7,2.7c1.9,0.3,6.9,1.1,11.3,1.9
	c4.4,0.7,10.7,1.7,14,2.1c3.3,0.4,7.7,1.1,9.7,1.5c2.1,0.4,5.1,0.9,6.7,1.1c1.6,0.3,5.6,0.8,8.9,1.3s7.5,1.2,9.3,1.5
	c6.3,0.8,15.3,2.3,18,2.9c1.5,0.3,4.5,0.8,6.7,1.1c2.3,0.3,5.9,0.8,8,1.2c6.1,1.1,84.8,14.1,89.3,14.9c2.3,0.3,6.7,1.2,10,1.9
	c5.6,1.2,26.1,4.8,35.3,6.3c2.3,0.3,8.3,1.3,13.3,2.4c5.2,1.1,14.8,2.8,21.3,3.9c6.7,1.2,13.2,2.4,14.7,2.7c1.5,0.3,7.7,1.5,14,2.7
	c14.7,2.7,16.5,3.1,25.3,4.8c4,0.8,9.3,1.7,11.9,2.1c2.4,0.4,5.5,0.9,6.7,1.2c10,2,53.5,10.4,56.1,10.8c1.9,0.4,4.3,0.9,5.3,1.2
	c1.1,0.3,4.1,0.9,6.7,1.3c3.7,0.7,67.2,13.3,80.1,16.1c1.7,0.3,6,1.2,9.5,1.9c3.5,0.7,10,2.8,14.7,4.8c18.1,7.6,57.2,20.5,68.4,22.5
	c37.3,6.8,42.8,7.3,67.3,7.5c22.4,0.1,32.5-0.9,58.4-6c15.7-3.2,44.1-14.9,57.9-23.9c26-16.9,96.5-36.7,187.6-52.3
	c10.7-1.9,21.3-3.7,23.5-4.1c2.3-0.4,5.5-0.9,7.3-1.2s5.2-0.8,7.3-1.2c5.5-0.9,22-3.6,25.3-4c1.5-0.3,5.1-0.8,8-1.2
	c2.9-0.5,7.7-1.2,10.7-1.6c3.1-0.4,6.7-0.9,8-1.2c1.5-0.3,5.7-0.9,9.3-1.3c3.7-0.5,12.7-1.7,20-2.8c14-1.9,22.1-2.9,30-3.9
	c2.5-0.3,7.3-0.9,10.7-1.3c3.3-0.5,7.9-1.1,10-1.3c5.2-0.7,26.7-3.3,32.7-4.1c2.5-0.4,7.7-0.9,11.3-1.3c3.7-0.3,7.9-0.8,9.3-1.2
	c1.5-0.3,7.5-0.9,13.3-1.6c5.9-0.5,10.9-1.1,11.3-1.2c0.4-0.1,5.7-0.7,12-1.2c6.3-0.7,12.3-1.3,13.3-1.5c1.1-0.3,6.5-0.8,12-1.3
	c5.5-0.4,11.5-1.1,13.3-1.3s7.2-0.9,12-1.3s10.1-0.9,12-1.3c1.9-0.3,8.1-0.8,14-1.3c5.7-0.5,10.9-1.1,11.3-1.3
	c0.4-0.1,6.4-0.8,13.3-1.2c6.9-0.5,14.5-1.2,16.7-1.5c4-0.5,12.5-1.3,26.7-2.7c12.7-1.2,21.1-1.9,28-2.5c3.7-0.4,10.5-1.1,15.3-1.5
	c4.8-0.4,11.3-1.1,14.7-1.3c3.3-0.4,10.5-0.9,16-1.3c5.5-0.5,12.1-1.1,14.9-1.3c4.4-0.5,16.1-1.5,32.4-2.7c10-0.8,25.9-2.1,32.7-2.7
	c3.3-0.3,11.1-0.9,17.3-1.3s14-1.1,17.3-1.3c3.3-0.3,10.5-0.9,16-1.3c5.5-0.4,13.3-1.1,17.3-1.3s12.4-0.9,18.7-1.3
	c6.3-0.4,15.2-0.9,20-1.3c8.7-0.7,22.8-1.7,38-2.7c14.8-0.9,30.7-2.1,38.7-2.7c7.3-0.7,19.9-1.5,41.3-2.7c4.4-0.3,14.7-0.9,22.7-1.3
	c16.3-0.9,22.9-2.5,38.5-8.7c25.3-9.9,44.9-22.8,61.7-40.4c25.1-26.4,40.1-62.5,43.9-104.9c1.7-19.7,0.8-48.3-2.1-65.3
	c-4.7-27.2-2.4-23.2-28.9-49.1c-13.1-12.8-44-43.1-68.9-67.3c-24.8-24.4-51.2-50.1-58.7-57.5c-7.3-7.2-35.3-34.5-62.1-60.8
	c-26.8-26.1-53.6-52.4-59.5-58.1c-6-5.9-31.5-30.7-56.5-55.2c-73.7-72.3-83.2-81.3-84.7-80.8c-38.8,17.3-66.8,27.1-95.3,33.5
	c-5.5,1.2-11.2,2.5-12.7,2.8c-11.9,2.8-34.9,6.3-53.7,8.1c-20.8,2.1-98.8,0.8-103.1-1.7c-0.5-0.3-4.1-0.8-8-1.3
	c-4-0.4-13.5-1.9-21.2-3.3c-127.2-23.9-239.9-99.1-311.3-207.9c-6-9.2-11.3-17.6-11.9-18.7c-0.4-1.1-2.1-4.1-3.7-6.7
	c-12.1-20-30-60.1-39.6-89.3c-4.1-12.4-13.9-50.7-15.3-60c-3.6-22.7-4.8-31.3-5.5-40c-0.5-5.5-1.1-12.1-1.5-14.7
	c-0.7-6.3-0.7-61.1,0-65.3c0.3-1.9,0.9-8.1,1.3-14.1c0.5-5.9,1.1-11.9,1.3-13.3c0.7-3.6,2-12.3,2.8-19.2c0.4-3.3,1.1-6.9,1.3-8
	c0.3-1.1,0.9-3.9,1.2-6c0.4-2.3,2.5-11.5,4.8-20.7c17.6-72.1,52.5-140.3,100.5-196.7c12.7-14.7,44.5-46.3,57.5-56.7
	c5.9-4.7,10.9-8.9,11.3-9.3c2.1-2.5,34.9-25.1,47.3-32.7c18.1-10.8,43.3-23.7,62.4-31.9c14.8-6.3,55.3-20.3,62.5-21.5
	c2.3-0.4,4.5-1.1,5.1-1.3c0.4-0.3,2.3-0.8,4.1-1.2c1.7-0.3,9.1-1.9,16.3-3.3c15.3-3.2,35.7-6.5,46.3-7.5c34.4-3.2,67.5-3.2,102,0
	c14.8,1.3,43.9,6.5,67.3,12c16.3,3.7,50.1,15.3,69.3,23.5c14.1,6,46.1,22.4,58.7,30s32,20.7,39.9,26.8c7.7,6,20.5,16.1,26.1,20.8
	c9.9,8.4,41.7,40.3,50.8,50.9c4.3,5.1,8.1,9.6,8.5,10c2.5,2.5,18.5,24.4,26.3,36c28,41.7,48.3,85.6,62.4,134.7
	c2.7,9.1,5.1,18.7,5.5,21.3c0.4,2.5,1.1,5.1,1.3,5.5c0.3,0.4,0.8,2.5,1.1,4.7c1.3,6.7,2,10,2.7,12.3c0.4,1.2,1.1,4.9,1.5,8.3
	c0.3,3.3,0.9,7.2,1.2,8.7s0.9,6.5,1.5,11.3c0.5,4.8,1.2,9.7,1.3,10.9c0.8,3.9,2.3,35.7,2.4,47.7c0,11.9-1.5,42.9-2.4,48.3
	c-0.3,1.7-0.8,6.7-1.3,11.1c-0.8,7.7-5.1,33.9-6.7,40.7c-0.4,1.9-1.1,4.8-1.5,6.7c-0.4,1.9-1.9,7.9-3.5,13.3
	c-1.5,5.5-2.8,10.9-3.1,12c-1.7,8.1-13.6,41.6-18.7,52.7c-0.9,2.1-2.8,6.7-4.1,10c-1.3,3.3-3.2,7.5-4,9.2
	c-1.6,3.1,1.7,6.7,93.5,98.4c52.4,52.4,95.7,95.3,96.3,95.5s1.1-271.9,1.2-604.4V2202l-5.7-11.3c-22.4-43.7-51.9-74.4-89.1-93.1
	c-7.3-3.6-28.3-10.5-35.5-11.7c-3.2-0.4-7.3-1.1-9.2-1.5c-10.8-1.9-37.1-1.2-50.4,1.2c-15.9,2.9-19.5,3.2-28.3,2
	c-16.1-2.3-27.5-2.8-61.3-2.8c-32.9,0-54,0.8-76,2.5c-4,0.3-11.9,0.9-17.3,1.3c-9.7,0.8-15.1,1.2-28.7,2.5
	c-3.6,0.4-10.5,1.1-15.3,1.5c-4.8,0.4-13.5,1.3-19.3,2c-5.9,0.7-14.3,1.6-18.7,2c-4.4,0.4-9.5,1.1-11.3,1.3s-6.3,0.8-10,1.3
	c-3.6,0.4-8.4,0.9-10.7,1.2c-2.1,0.3-7.3,0.9-11.3,1.3c-4,0.5-11.2,1.5-16,2.1c-4.8,0.7-11.1,1.6-14,1.9c-2.9,0.4-12.3,1.6-20.7,2.8
	c-8.4,1.2-17.3,2.4-19.9,2.8c-2.5,0.3-6.1,0.8-8,1.2c-1.9,0.3-7.6,1.2-12.8,1.9c-12.7,1.9-17.3,2.5-36.7,5.6
	c-9.2,1.5-18.8,3.1-21.3,3.3c-2.5,0.4-6.1,0.9-7.9,1.2c-1.7,0.3-6,1.1-9.3,1.6s-6.4,1.1-6.8,1.1c-0.4,0.1-3.6,0.7-7.3,1.2
	c-9.7,1.5-12.5,2-20.7,3.5c-4,0.7-9.3,1.6-11.6,2c-2.4,0.4-6.4,0.9-8.7,1.3c-2.4,0.4-10.9,1.9-19.1,3.3c-8,1.5-17.1,2.9-20,3.3
	c-2.9,0.5-6.3,1.1-7.3,1.3s-4.1,0.9-6.7,1.3c-2.5,0.4-14.5,2.5-26.7,4.7c-32.3,5.7-32.8,5.7-56,10.1c-9.9,2-19.5,3.7-21.3,4
	s-4.8,0.9-6.7,1.3c-1.9,0.4-4.8,0.9-6.7,1.2c-1.9,0.3-11.5,2.1-21.3,4c-9.9,2-19.5,3.7-21.3,4.1c-1.9,0.3-14.1,2.8-27.3,5.3
	c-13.2,2.7-25.5,5.1-27.3,5.3c-1.9,0.4-18.3,3.6-36.7,7.3c-18.3,3.7-34.7,7.1-36.1,7.3c-1.6,0.3-8.8,1.7-16,3.3
	c-7.3,1.5-14.7,3.1-16.5,3.3c-7.5,1.5-50.3,10.4-73.3,15.5c-13.6,2.9-25.6,5.5-26.7,5.7c-1.1,0.3-9.5,2-18.7,4
	c-9.2,2-18.1,3.9-20,4.1c-1.9,0.4-6.4,1.5-10,2.4l-6.8,1.7l-5.2-4.5c-8-6.8-26.4-15.3-55.3-25.5c-1.1-0.4-2.5-0.8-3.3-1.1
	c-0.7-0.3-7.6-2.3-15.3-4.5c-16.1-4.8-63.5-16.7-71.3-17.9c-2.9-0.5-7.5-1.5-10-2.1c-2.5-0.7-6.4-1.6-8.7-1.9
	c-2.1-0.4-5.2-1.1-6.7-1.3c-8.4-1.7-39.2-7.7-42-8.1c-1.9-0.3-8.4-1.5-14.7-2.7c-6.3-1.1-13.5-2.4-16-2.8c-2.5-0.3-6.1-0.9-8-1.3
	c-7.9-1.5-9.2-1.7-14.1-2.4c-2.9-0.4-6.7-1.1-8.5-1.5c-1.9-0.3-5.7-0.9-8.7-1.3c-2.9-0.4-10.4-1.6-16.7-2.7
	c-6.3-0.9-13.7-2.3-16.7-2.7c-2.9-0.4-6.8-1.1-8.7-1.3c-3.6-0.5-30.3-4.5-36.7-5.3c-3.5-0.5-13.1-1.9-30-4.1c-2.5-0.4-6.1-0.9-8-1.2
	c-1.9-0.3-8.4-1.2-14.7-2s-13.1-1.7-15.3-2.1c-2.1-0.3-6.4-0.8-9.3-1.2c-2.8-0.3-10-1.2-16-2c-18.1-2.4-19.6-2.5-35.3-4.5
	c-8.4-1.1-18.7-2.4-22.7-2.8s-9.7-1.1-12.7-1.5c-2.9-0.4-7.5-0.9-10-1.2c-2.5-0.3-7.1-0.9-10-1.3c-5.2-0.7-8.8-1.1-24.7-2.7
	c-4-0.4-8.8-1.1-10.7-1.3c-3.3-0.5-11.1-1.5-23.3-2.7c-3.6-0.4-8.8-0.9-11.3-1.3c-2.5-0.3-8.5-0.9-13.3-1.5
	c-4.8-0.4-9.9-1.1-11.3-1.3s-6.8-0.8-11.7-1.2c-4.9-0.4-10.7-0.9-12.7-1.2c-2-0.4-7.5-0.9-12.3-1.5c-4.8-0.4-10.1-1.1-12-1.3
	s-7.5-0.9-12.7-1.3c-5.1-0.4-11.5-1.1-14-1.3c-5.3-0.7-14.3-1.6-26.7-2.7c-4.8-0.4-10.8-1.1-13.3-1.3c-2.5-0.4-8.3-0.9-12.7-1.3
	c-4.4-0.4-10.1-1.1-12.7-1.3c-2.5-0.3-8.8-0.9-14-1.3c-5.1-0.4-11.5-1.1-14-1.3c-2.5-0.4-8.8-0.9-14-1.3c-5.1-0.4-11.5-1.1-14-1.3
	c-2.5-0.3-8.8-0.9-14-1.3c-8.8-0.8-15.7-1.5-28-2.7c-2.9-0.4-9.9-0.9-15.3-1.3c-5.5-0.4-12.4-1.1-15.2-1.3
	c-2.8-0.3-9.9-0.9-15.6-1.3c-5.9-0.4-11.6-1.1-12.8-1.2c-1.3-0.3-8.3-0.9-15.3-1.5c-7.2-0.4-14.9-1.1-17.3-1.5
	c-2.4-0.3-8.3-0.8-13.1-1.2c-4.8-0.3-11.6-0.9-15.3-1.2c-3.6-0.4-12-0.9-18.7-1.5c-6.5-0.4-13.7-0.9-16-1.3
	c-2.1-0.3-9.1-0.9-15.3-1.3c-6.3-0.4-14.3-1.1-18-1.3C1109.6,2070.7,1096.3,2070.5,1086,2073.2L1086,2073.2z M1301.3,2536.7
	c9.2,0.5,19.1,1.1,22,1.3s11.6,0.8,19.3,1.3c7.7,0.4,15.5,1.1,17.3,1.3s9.1,0.9,16,1.3c6.9,0.5,14.1,1.2,16,1.3
	c1.9,0.3,8.4,0.8,14.7,1.3s12.8,1.1,14.7,1.3s8.1,0.9,14,1.5c5.9,0.4,11.6,1.1,12.8,1.2c1.2,0.3,6.9,0.8,12.7,1.3
	c5.7,0.5,12,1.1,13.7,1.3c1.9,0.4,7.2,0.9,12,1.3c4.8,0.5,10.3,1.1,12.1,1.3c1.9,0.4,9.1,1.2,16,2c6.9,0.8,14.1,1.6,16,2
	c1.9,0.3,6.7,0.8,10.8,1.3c4.1,0.4,8.7,0.9,10,1.2c1.5,0.3,6.4,0.9,11.2,1.5c4.8,0.5,9.6,1.2,10.7,1.3c2.3,0.4,12.4,1.7,20.7,2.8
	c2.9,0.3,10.8,1.5,17.3,2.5c6.7,1.1,15.1,2.3,18.7,2.8c3.7,0.4,7.6,1.1,8.9,1.2c1.2,0.3,5.1,0.9,8.7,1.5c3.5,0.4,7.6,1.1,9.1,1.3
	c2.9,0.7,33.2,5.5,40.7,6.5c2.5,0.4,7.3,1.3,10.7,2c3.3,0.7,8.4,1.6,11.3,2c6.4,0.8,10.7,1.6,13.7,2.5c1.2,0.4,5.6,1.1,9.6,1.5
	c4,0.5,7.7,1.2,8.1,1.5c0.5,0.3,3.2,0.8,6,1.3c2.9,0.4,7.3,1.2,9.9,1.9c2.5,0.7,6.9,1.5,9.6,1.9c2.8,0.4,7.6,1.3,10.7,2
	c3.2,0.8,7.9,1.7,10.4,2.1c9.3,1.6,69.2,14.4,95.3,20.4c54.9,12.7,162.3,42.1,166.4,45.7c1.1,0.8,1.7,138.1,0.7,139.2
	c-0.1,0.3-4.5-0.9-9.7-2.7c-5.1-1.7-10.8-3.5-12.7-3.7c-1.9-0.4-9.1-1.9-16-3.3c-6.9-1.5-14.8-3.1-17.3-3.5
	c-2.5-0.4-9.5-1.6-15.3-2.7c-11.6-2.1-15.2-2.8-29.3-4.8c-5.1-0.8-10.3-1.6-11.3-2c-1.1-0.3-4.9-0.8-8.7-1.3c-3.6-0.4-10-1.3-14-2
	s-10.3-1.6-14-2c-3.6-0.4-10.3-1.3-14.7-2c-4.4-0.7-10.7-1.6-14-2c-3.3-0.4-7.5-1.1-9.3-1.3s-5.7-0.8-8.7-1.2
	c-10.3-1.3-17.3-2.3-20.7-2.8c-3.6-0.5-16.3-2.1-20.7-2.7c-1.5-0.3-6-0.8-10-1.3c-4-0.4-8.8-1.1-10.7-1.3c-5.1-0.8-12.4-1.7-30.7-4
	c-20.9-2.7-23.6-2.9-36.7-4.5c-5.9-0.8-14-1.7-18-2.1c-4-0.4-8.3-1.1-9.3-1.3s-6.5-0.9-12-1.3c-5.5-0.4-10.9-1.1-12-1.3
	c-1.1-0.3-5.9-0.9-10.7-1.3c-4.8-0.4-9.6-1.1-10.7-1.3c-1.1-0.3-6.1-0.8-11.1-1.3c-4.9-0.4-10.1-1.1-11.3-1.3
	c-1.2-0.1-6.4-0.8-11.3-1.3c-4.9-0.4-10.1-1.1-11.3-1.3c-2.3-0.4-17.1-2-24.9-2.7c-5.1-0.5-17.6-2-22-2.7c-1.9-0.3-6.9-0.8-11.3-1.3
	c-11.5-1.2-19.3-2-24.7-2.7c-5.1-0.7-13.7-1.6-23.6-2.7c-3.6-0.4-8.5-0.9-11.1-1.3c-2.5-0.4-8-0.9-12.1-1.3c-4.1-0.3-9.6-0.9-12-1.2
	c-5.9-0.9-27.7-3.3-37.2-4.1c-4-0.4-12.1-1.3-18-2c-5.9-0.7-14.3-1.6-18.7-2c-4.4-0.4-10.1-1.1-12.7-1.3s-8.3-0.9-12.7-1.3
	c-4.4-0.5-9.5-1.1-11.3-1.3s-8.1-0.9-14-1.5c-5.9-0.4-11.9-1.1-13.3-1.3c-1.5-0.3-6.5-0.8-11.3-1.2c-4.8-0.4-10.1-1.1-12-1.3
	s-7.9-0.8-13.3-1.3c-11.2-0.9-17.3-1.9-18.7-2.7c-1.1-0.7-1.6-165.9-0.5-167.6c0.4-0.7,1.1-0.8,1.6-0.5
	C1284.3,2535.5,1292.1,2536.1,1301.3,2536.7L1301.3,2536.7z M1303.3,3015.2c6.7,0.4,16.3,1.1,21.3,1.5c11.9,0.9,24,1.9,36.7,2.7
	c5.5,0.4,12.1,1.1,14.7,1.3c2.5,0.3,10.1,0.9,16.7,1.3c6.7,0.5,13.5,1.1,15.3,1.3s7.9,0.9,13.3,1.3c5.5,0.5,11.6,1.1,13.7,1.3
	c2,0.3,8.3,0.9,14,1.3c5.6,0.5,11.7,1.1,13.6,1.3c1.9,0.3,6.9,0.9,11.3,1.3c4.4,0.4,12.5,1.3,18,2c5.5,0.7,13.6,1.6,18,2
	c7.5,0.8,32.5,3.9,43.3,5.3c9.5,1.3,14.1,2,19.3,2.7c2.9,0.4,7.5,0.9,10,1.3c8.5,1.1,14,1.9,20.7,2.8c3.7,0.4,7.9,1.1,9.2,1.3
	c1.5,0.3,7.2,1.1,12.8,1.9c5.6,0.8,11.3,1.6,12.8,1.9c1.3,0.3,4.9,0.8,7.9,1.3c2.9,0.4,14.9,2.4,26.7,4.3c11.7,1.9,22.8,3.7,24.7,4
	c3.9,0.5,19.6,3.2,41.3,7.2c8.4,1.6,16.8,3.1,18.7,3.3c3.1,0.4,75.2,14.9,80,16c2.4,0.5,22.3,4.9,36,7.9c22,4.8,78.3,18.8,106,26.4
	c16.1,4.4,30.3,8.1,31.3,8.4c1.1,0.3,10.1,2.9,20,6s20.1,6.1,22.7,6.9c2.5,0.7,5.2,1.7,5.7,2.4c0.9,0.8,1.6,104.4,0.9,136.9
	c0,2.9-0.1,2.9-4.9,1.1c-5.2-2-23.2-6.7-30.8-8c-2.4-0.4-8.4-1.6-13.3-2.5c-4.9-1.1-11.3-2.3-14.3-2.7c-3.1-0.5-6.9-1.1-8.7-1.5
	c-6.4-1.2-18-3.2-23.3-4c-3.1-0.4-6.7-0.9-8-1.2c-3.2-0.5-13.3-2.1-18-2.8c-4.3-0.5-14.7-2.1-17.5-2.7c-1.2-0.3-5.3-0.8-9.3-1.3
	c-4-0.4-8.1-1.1-9.2-1.3c-1.1-0.3-5.3-0.9-9.3-1.3s-8.3-1.1-9.3-1.3c-1.1-0.3-5.9-0.9-10.7-1.3c-4.8-0.5-8.9-1.1-9.3-1.3
	c-0.7-0.4-7.7-1.3-20.7-2.8c-4.4-0.4-9.2-1.1-10.7-1.3c-1.5-0.3-5.9-0.8-9.7-1.3c-3.9-0.4-8.1-0.9-9.5-1.2s-5.6-0.8-9.6-1.3
	c-4-0.4-8.7-1.1-10.5-1.3s-6.7-0.9-10.7-1.3c-4-0.4-8.8-1.1-10.7-1.3s-6.5-0.9-10.5-1.3c-4-0.5-8.1-1.1-9.3-1.3
	c-1.2-0.1-6.3-0.8-11.5-1.3c-5.1-0.5-10.4-1.2-11.6-1.5c-1.2-0.1-6.4-0.8-11.3-1.2c-4.9-0.5-10-1.2-11.1-1.3
	c-3.3-0.5-16.9-2.3-33.3-4c-3.3-0.4-7.7-0.9-10-1.3c-2.1-0.3-7.7-0.9-12.4-1.3c-4.7-0.5-9.6-1.1-10.9-1.3c-1.3-0.3-6.7-0.9-11.6-1.3
	c-4.9-0.5-10-1.1-11.1-1.3c-1.1-0.3-6.5-0.9-12-1.3c-5.5-0.5-10.9-1.1-12-1.3c-1.2-0.3-5.7-0.8-10-1.3c-4.4-0.4-9.7-1.1-12-1.3
	c-2.1-0.3-7.6-0.9-12-1.3c-4.4-0.4-9.7-1.1-12-1.3c-2.1-0.3-7.6-0.9-12-1.3c-4.4-0.4-9.5-1.1-11.3-1.3s-7.2-0.9-12-1.3
	c-4.8-0.5-10.1-1.1-12-1.3s-7.2-0.9-12-1.3c-4.8-0.4-10.1-1.1-12-1.3s-7.2-0.9-12-1.3c-4.8-0.4-10.1-1.1-12-1.3s-7.2-0.9-12-1.3
	c-8.4-0.8-11.9-1.2-23.3-2.5c-2.9-0.4-9.2-1.1-14-1.5c-4.8-0.5-10.1-1.1-12-1.3s-7.2-0.8-12-1.3c-4.8-0.4-10.8-1.1-13.3-1.3
	c-2.5-0.3-7.9-0.9-11.6-1.3c-3.9-0.4-10.3-0.9-14-1.3c-3.9-0.4-9.2-1.1-11.7-1.3c-8.5-1.1-17.9-2-26.7-2.8
	c-4.8-0.4-9.9-1.1-11.3-1.2c-1.5-0.3-4-0.5-5.5-0.5l-2.8-0.1l-0.1-83.7c0-46,0.1-83.9,0.4-84.3
	C1282.4,3013.9,1283.1,3014,1303.3,3015.2L1303.3,3015.2z M1306.7,3466c7.7,0.4,17.3,1.1,21.3,1.3c7.2,0.5,13.6,1.1,35.3,2.7
	c5.9,0.4,13.1,1.1,16,1.3s10.1,0.9,16,1.3c5.9,0.4,12.5,0.9,14.7,1.3c2.3,0.3,8.8,0.9,14.7,1.3c5.9,0.5,12.1,1.1,14,1.3
	s7.2,0.8,12,1.3c4.8,0.4,10.8,1.1,13.3,1.3c2.5,0.3,8.3,0.9,12.7,1.3c4.4,0.4,10.1,1.1,12.7,1.3c7.3,0.9,26.7,3.2,34,4
	c3.7,0.4,8.9,1.1,11.7,1.5c5.5,0.8,7.7,1.1,20,2.5c4.5,0.5,9.2,1.2,10.4,1.3c1.2,0.3,5.3,0.8,9.3,1.3c4,0.4,8.7,1.1,10.5,1.3
	s5.7,0.9,8.7,1.3c7.3,0.9,20,2.7,36.7,5.2c7.7,1.2,16.1,2.4,18.7,2.8c2.5,0.4,8,1.3,12,2c7.2,1.2,17.3,2.8,21.3,3.3
	c1.1,0.1,3.9,0.5,6,1.1c2.3,0.4,6.1,1.2,8.7,1.5c2.5,0.4,8.3,1.3,12.7,2.1c4.4,0.8,11.6,2,16,2.8c14.7,2.4,16,2.7,21.3,3.9
	c2.9,0.7,7.5,1.5,10,1.9s6.1,1.1,8,1.5c1.9,0.4,5.2,0.9,7.3,1.3c2.3,0.4,6.7,1.3,10,2c3.3,0.7,7.5,1.6,9.3,1.9s9.3,1.7,16.7,3.3
	c7.3,1.6,14.5,3.1,16,3.2c1.5,0.3,4.1,0.9,6,1.3c3.3,0.8,38.4,8.5,43.3,9.5c15.9,3.2,62,14.5,98,24.1c12.8,3.5,24.3,6.4,25.3,6.7
	c2.7,0.7,39.6,11.7,51.3,15.3c5.2,1.6,9.9,3.5,10.5,4c0.8,0.8,1.5,91.5,0.8,135.6v4.3l-4.5-1.9c-5.3-2.3-33.5-9.1-46.1-11.2
	c-4.8-0.8-10.1-1.7-12-2.1s-7.2-1.3-12-2c-4.8-0.8-10.1-1.7-12-2.1c-1.9-0.3-9.1-1.5-16-2.5c-6.9-1.1-14.4-2.3-16.7-2.7
	c-8.4-1.5-12.3-2-18-2.7c-3.3-0.4-7.5-0.9-9.2-1.3c-1.7-0.3-6.5-0.9-10.7-1.5c-4.1-0.4-7.7-1.1-8.1-1.2c-0.4-0.3-4.9-0.8-10-1.3
	c-5.2-0.5-9.6-1.2-10-1.3c-0.4-0.3-4-0.8-8-1.3c-4-0.4-8.8-1.1-10.7-1.3c-20.7-2.9-31.2-4.3-40.7-5.3c-3.6-0.4-8.1-1.1-10-1.3
	s-6.7-0.9-10.7-1.3c-4-0.4-8.8-1.1-10.7-1.3s-11.1-1.5-20.7-2.7c-9.5-1.2-18.8-2.4-20.7-2.7s-7.2-0.9-12-1.3
	c-4.8-0.5-9.6-1.1-10.7-1.3c-1.1-0.3-5.9-0.8-10.7-1.3s-9.6-1.1-10.8-1.3c-1.1-0.3-5.6-0.8-10-1.2c-11.9-1.3-19.5-2.1-23.2-2.8
	c-1.9-0.4-7.3-0.9-12.3-1.3c-4.9-0.4-10-0.9-11.3-1.2c-1.3-0.3-6.3-0.9-11.1-1.5c-4.8-0.4-10.1-1.1-12-1.3s-6.7-0.8-10.7-1.3
	c-4-0.4-9.5-1.1-12-1.3c-2.5-0.4-7.6-0.9-11.3-1.3c-3.6-0.4-8.8-0.9-11.3-1.3c-2.5-0.3-10.7-1.2-18-2c-7.3-0.8-15.5-1.7-18-2
	c-17.3-2.1-23.7-2.8-34.7-3.9c-4.8-0.4-10.1-1.1-12-1.3c-2.9-0.5-8-1.1-26-2.8c-2.9-0.3-8-0.9-11.3-1.3c-8.8-1.1-23.6-2.8-36.7-4
	c-4.4-0.4-9.2-1.1-10.7-1.3c-1.5-0.1-7.5-0.8-13.3-1.3s-11.6-1.2-12.7-1.3c-1.1-0.3-6.8-0.8-12.7-1.3s-11.7-1.2-13.1-1.5
	c-1.3-0.3-6.4-0.8-11.3-1.2c-4.9-0.4-10.8-1.1-13.2-1.3c-2.4-0.4-8.4-1.1-13.3-1.5c-4.9-0.4-10.5-0.9-12.4-1.2
	c-1.9-0.1-7.6-0.8-12.8-1.3l-9.6-0.9v-83.6c0-45.9,0.3-83.9,0.5-84.3c0.3-0.5,2.8-0.7,5.5-0.4
	C1290.4,3464.9,1298.9,3465.5,1306.7,3466L1306.7,3466z"/>
<path class="st0" d="M2808.9,2727.5c-0.1,0.1-5.7,0.7-12.4,1.1c-6.8,0.5-13.5,1.1-14.9,1.5c-1.5,0.3-4.9,0.8-7.7,1.3
	c-10.5,1.6-18.5,3.3-30.5,6.5c-16.5,4.3-32.7,10.7-53.3,21.1c-10.1,5.1-29.9,16.7-31.3,18.4c-0.4,0.5-3.6,2.9-7.3,5.3
	c-3.6,2.5-11.2,8.5-16.7,13.2c-34.3,29.7-59.1,63.1-77.2,104.4c-5.6,12.7-15.1,41.7-16.8,51.6c-0.3,1.9-1.5,8.7-2.5,15.2
	c-4.7,26.4-5.2,57.7-1.5,84.3c0.3,2.1,0.8,6.1,1.2,8.7c1.2,9.1,6.3,30.1,9.6,40.5c23.6,73.2,74.7,133.3,142.5,168
	c20,10.3,45.2,19.9,60.5,22.9c1.6,0.4,6.8,1.5,11.3,2.5c4.4,1.1,11.2,2.3,14.8,2.8c3.7,0.4,7.9,1.1,9.3,1.5
	c5.2,1.3,56.1,1.6,65.3,0.4c15.9-2.1,19.7-2.8,29.3-4.8c40.9-8.8,77.3-25.6,112.7-51.7c14.3-10.7,39.7-35.3,50.9-49.5
	c8.9-11.2,19.7-27.1,19.7-28.8c0-0.7,0.4-1.2,1.1-1.2c0.5,0,1.6-1.3,2.4-3.1c0.8-1.6,3.5-6.8,6-11.6c5.7-10.7,15.3-32.8,18.5-42.7
	c3.6-11.1,7.9-26.8,8.7-32c0.4-2.5,1.1-5.6,1.3-6.7c0.7-2.5,1.6-8.1,2.7-16.7c3.6-30.5,2.8-57.5-2.7-88.5
	c-11.7-66.7-48.8-128.1-104.3-172.7c-6-4.8-11.5-8.8-12.3-8.8c-0.7,0-1.5-0.5-1.7-1.2c-0.1-0.7-5.5-4.4-11.7-8.1
	c-26.3-16.1-55.3-28.4-82.7-34.9c-12.4-2.9-12.7-2.9-21.3-4.4c-3.3-0.5-7.1-1.2-8.3-1.3C2852,2728.5,2810.1,2726.4,2808.9,2727.5
	L2808.9,2727.5z"/>
</svg>
