<svg id="Capa_1" data-name="Capa 1" xmlns="http://www.w3.org/2000/svg" viewBox="0 0 500.65 512"><defs><style>.cls-1{fill:#6b6b6b;}</style></defs><title>calendar</title><path class="cls-1" d="M186.54,282.47a11.61,11.61,0,0,0-11.62-11.61H134.37a11.61,11.61,0,0,0-11.62,11.61V323a11.62,11.62,0,0,0,11.62,11.62h40.55A11.62,11.62,0,0,0,186.54,323V282.47Z" transform="translate(-5.68)"/><path class="cls-1" d="M287.89,282.47a11.61,11.61,0,0,0-11.61-11.61H235.72a11.61,11.61,0,0,0-11.61,11.61V323a11.61,11.61,0,0,0,11.61,11.62h40.56A11.61,11.61,0,0,0,287.89,323Z" transform="translate(-5.68)"/><path class="cls-1" d="M389.25,282.47a11.61,11.61,0,0,0-11.62-11.61H337.08a11.61,11.61,0,0,0-11.62,11.61V323a11.62,11.62,0,0,0,11.62,11.62h40.55A11.62,11.62,0,0,0,389.25,323Z" transform="translate(-5.68)"/><path class="cls-1" d="M186.54,383.83a11.61,11.61,0,0,0-11.62-11.62H134.37a11.62,11.62,0,0,0-11.62,11.62v40.54A11.61,11.61,0,0,0,134.37,436h40.55a11.61,11.61,0,0,0,11.62-11.61V383.83Z" transform="translate(-5.68)"/><path class="cls-1" d="M287.89,383.83a11.61,11.61,0,0,0-11.61-11.62H235.72a11.61,11.61,0,0,0-11.61,11.62v40.54A11.61,11.61,0,0,0,235.72,436h40.56a11.61,11.61,0,0,0,11.61-11.61Z" transform="translate(-5.68)"/><path class="cls-1" d="M389.25,383.83a11.61,11.61,0,0,0-11.61-11.62H337.08a11.61,11.61,0,0,0-11.62,11.62v40.54A11.61,11.61,0,0,0,337.08,436h40.56a11.61,11.61,0,0,0,11.61-11.61V383.83Z" transform="translate(-5.68)"/><path class="cls-1" d="M461.76,57v61.93a50.59,50.59,0,0,1-50.7,50.56h-32c-28,0-51-22.56-51-50.56V56.79H183.92v62.15c0,28-23,50.56-51,50.56h-32a50.59,50.59,0,0,1-50.7-50.56V57A46.1,46.1,0,0,0,5.68,102.87v363A46.12,46.12,0,0,0,51.57,512H460.43c25.31,0,45.89-20.86,45.89-46.16v-363A46.1,46.1,0,0,0,461.76,57ZM446.91,443.23a19.84,19.84,0,0,1-19.84,19.84h-343a19.84,19.84,0,0,1-19.84-19.84V255.75A19.85,19.85,0,0,1,84.06,235.9h343a19.85,19.85,0,0,1,19.84,19.85V443.23Z" transform="translate(-5.68)"/><path class="cls-1" d="M100.82,136.29h31.64a17.38,17.38,0,0,0,17.39-17.37V17.38A17.39,17.39,0,0,0,132.46,0H100.82A17.38,17.38,0,0,0,83.44,17.38V118.92A17.37,17.37,0,0,0,100.82,136.29Z" transform="translate(-5.68)"/><path class="cls-1" d="M378.67,136.29h31.64a17.38,17.38,0,0,0,17.38-17.37V17.38A17.38,17.38,0,0,0,410.31,0H378.67a17.38,17.38,0,0,0-17.38,17.38V118.92A17.37,17.37,0,0,0,378.67,136.29Z" transform="translate(-5.68)"/></svg>